<svg width="77" height="82" viewBox="0 0 77 82" fill="none" xmlns="http://www.w3.org/2000/svg">
<path d="M40.2998 81.2276C29.8016 81.2276 19.7334 76.9993 12.3101 69.4729C4.88681 61.9465 0.716431 51.7385 0.716431 41.0945C0.716431 30.4506 4.88681 20.2426 12.3101 12.7161C19.7334 5.18972 29.8016 0.961426 40.2998 0.961426C40.8523 0.961426 41.3822 1.18397 41.7729 1.5801C42.1636 1.97622 42.3831 2.51349 42.3831 3.07369C42.3831 3.6339 42.1636 4.17117 41.7729 4.56729C41.3822 4.96342 40.8523 5.18596 40.2998 5.18596C34.4567 5.15084 28.6958 6.58203 23.5306 9.35198C18.3654 12.1219 13.9565 16.1446 10.6967 21.0613C7.43688 25.9781 5.42757 31.6362 4.84785 37.5313C4.26812 43.4264 5.13599 49.3754 7.3741 54.8479C9.61221 60.3204 13.151 65.1465 17.6751 68.8959C22.1991 72.6454 27.5679 75.2017 33.3028 76.337C39.0377 77.4723 44.9605 77.1513 50.5434 75.4026C56.1263 73.654 61.1957 70.532 65.2998 66.315C65.485 66.0927 65.7136 65.9115 65.9711 65.783C66.2287 65.6544 66.5097 65.5812 66.7964 65.568C67.0832 65.5547 67.3696 65.6017 67.6376 65.706C67.9056 65.8103 68.1495 65.9696 68.3539 66.1739C68.5584 66.3783 68.7189 66.6232 68.8256 66.8935C68.9322 67.1637 68.9826 67.4534 68.9736 67.7443C68.9646 68.0352 68.8964 68.3211 68.7733 68.584C68.6501 68.8469 68.4748 69.0812 68.2581 69.2722C64.6151 73.0483 60.2663 76.0505 55.4659 78.1032C50.6654 80.156 45.5097 81.2181 40.2998 81.2276Z" fill="#FF4343"/>
<path d="M39.0497 54.613C38.7795 54.6218 38.5104 54.5738 38.2595 54.472C38.0085 54.3702 37.781 54.2168 37.5913 54.0215L20.9247 37.1234C20.7294 36.927 20.5744 36.6934 20.4686 36.436C20.3629 36.1786 20.3084 35.9025 20.3084 35.6237C20.3084 35.3448 20.3629 35.0688 20.4686 34.8114C20.5744 34.554 20.7294 34.3203 20.9247 34.124C21.3211 33.7343 21.8516 33.5163 22.4038 33.5163C22.956 33.5163 23.4865 33.7343 23.883 34.124L39.0497 49.5435L73.008 15.1136C73.4003 14.7158 73.9324 14.4924 74.4872 14.4924C75.042 14.4924 75.574 14.7158 75.9663 15.1136C76.3586 15.5113 76.579 16.0508 76.579 16.6133C76.579 17.1758 76.3586 17.7152 75.9663 18.113L40.5497 54.0215C40.3508 54.2161 40.1158 54.3685 39.8583 54.47C39.6008 54.5716 39.3259 54.6202 39.0497 54.613Z" fill="#FF4343"/>
</svg>
